<?xml version="1.0" encoding="UTF-8"?>
<svg width="1438px" height="326px" viewBox="0 0 1438 326" version="1.1" xmlns="http://www.w3.org/2000/svg" xmlns:xlink="http://www.w3.org/1999/xlink">
    <!-- Generator: Sketch 54.1 (76490) - https://sketchapp.com -->
    <title>logo_normal</title>
    <desc>Created with Sketch.</desc>
    <g id="ManualEstilos" stroke="none" stroke-width="1" fill="none" fill-rule="evenodd">
        <g id="logo_normal" transform="translate(-1.000000, -286.000000)">
            <g transform="translate(1.000000, 286.000000)" id="logo">
                <g>
                    <path d="M1077.68112,78 C1075.98928,85.3139833 1075,92.8634885 1075,100.753477 L1075,203.213243 C1075,211.034111 1075.98928,218.686017 1077.68112,226 L1167,151.98464 L1077.68112,78 Z" id="Fill-1" fill="#FD1F18"></path>
                    <path d="M1290,151.483291 L1125.16956,13 C1113.41678,19.8353487 1103.11648,29.0485453 1095,39.9275208 L1227.75067,151.483291 L1095,263.039061 C1103.11648,273.951455 1113.41678,283.131233 1125.16956,290 L1290,151.483291 Z" id="Fill-3" fill="#FD1F18"></path>
                    <path d="M1337.44219,0 L1175.16729,0 C1173.73961,0 1172.41225,0.135812388 1171,0.135812388 L1352.7377,151.5 L1171,302.861625 C1172.41225,302.8975 1173.73961,303 1175.16729,303 L1337.44219,303 C1392.8852,303 1438,258.05635 1438,202.780708 L1438,100.219292 C1438,44.9769629 1392.8852,0 1337.44219,0" id="Fill-5" fill="#FD1F18"></path>
                    <path d="M139.361702,151.041744 C139.361702,117.783862 127.631738,96.8593156 100.387531,96.8593156 C84.873288,96.8593156 70.8363443,106.200494 60.6382979,116.291637 L60.6382979,189.939775 C73.8975788,202.270541 84.873288,208.247148 101.110575,208.247148 C126.531566,208.247148 139.361702,187.322601 139.361702,151.041744 L139.361702,151.041744 Z M0,51.1590638 L60.7524373,51.1590638 L60.7524373,81.5248682 C73.9706492,63.5306038 92.848994,47 122.650902,47 C168.297552,47 200,81.8650146 200,150.883829 C200,219.833067 167.93715,254.017789 121.896391,254.017789 C94.6847127,254.017789 75.8582244,244.2695 60.7524373,227.398749 L60.7524373,326 L0,326 L0,51.1590638 Z" id="Fill-7" fill="#1A1A1A"></path>
                    <path d="M351.455959,151.721358 C351.455959,118.509363 339.793624,91.5714286 309.678426,91.5714286 C280.71136,91.5714286 267.544041,115.828908 267.544041,151.721358 C267.544041,184.935918 278.810736,212.55102 309.678426,212.55102 C338.270539,212.55102 351.455959,187.921612 351.455959,151.721358 M207,151.169985 C207,72.8557702 260.777442,47 309.669315,47 C358.217389,47 412,72.8557702 412,151.169985 C412,228.770778 358.217389,255 309.669315,255 C261.154845,255 207,228.770778 207,151.169985" id="Fill-9" fill="#1A1A1A"></path>
                    <path d="M546.584906,120.711416 C546.584906,100.50173 534.86905,85.1901141 512.228424,85.1901141 C489.97945,85.1901141 477.90566,100.50173 477.90566,120.711416 C477.90566,140.923674 490.321822,156.26616 512.228424,156.26616 C534.508522,156.26616 546.584906,140.923674 546.584906,120.711416 M568.773585,274.631144 C568.773585,262.246205 562.83409,256.618563 516.216435,254.36699 L485.116792,252.865942 C480.691436,252.458441 476.212639,252.081889 472.15882,251.741445 C464.702641,256.618563 461,262.999308 461,269.751447 C461,286.977396 476.937899,295.235741 517.292873,295.235741 C547.687615,295.235741 568.773585,287.764028 568.773585,274.631144 M405,281.010058 C405,261.515877 421.039329,248.360848 439.299016,240.862095 C430.760755,235.236741 425.884677,227.400416 425.884677,216.868662 C425.884677,200.337905 438.943041,186.123774 454.590543,176.001746 C432.996479,163.256442 421.802497,142.600083 421.802497,118.642727 C421.802497,78.5256858 453.812009,47 511.223742,47 C540.659483,47 563.050007,55.2795511 577.936902,68.7438071 C591.315388,57.1220283 612.604697,49.247049 629,48.1235245 L629,94.2369909 C621.918929,94.2369909 609.59044,94.9868662 595.448786,98.7697423 C597.68451,103.98537 599.174992,110.734248 599.174992,118.642727 C599.174992,159.13084 568.248768,189.87315 511.223742,189.87315 C500.02976,189.87315 489.598946,188.409476 480.707272,186.5 C476.5918,189.87315 473.930957,192.875229 473.930957,196.622028 C473.930957,204.120781 481.757268,205.620532 496.303554,206.403907 L526.110636,208.210308 C594.329644,210.903159 621.918929,227.400416 621.918929,264.889027 C621.918929,306.165669 573.836796,326 507.889364,326 C430.371489,326 405,309.131671 405,281.010058" id="Fill-11" fill="#1A1A1A"></path>
                    <path d="M766.18232,130.836735 C763.165563,102.861654 750.346937,89.4489796 727.703116,89.4489796 C708.850975,89.4489796 692.619058,101.7785 688.093923,130.836735 L766.18232,130.836735 Z M629,151.169985 C629,73.6052501 687.850516,47 728.798459,47 C769.779665,47 820,67.6094106 820,158.324814 L820,167.315998 L688.55925,167.315998 C691.57073,200.257058 709.795687,213.031699 734.736986,213.031699 C758.204528,213.031699 780.167609,201.382566 793.569591,189.050916 L816.666135,225.023378 C793.569591,244.91679 764.905519,255 730.28501,255 C678.544863,255 629,228.39475 629,151.169985 L629,151.169985 Z" id="Fill-13" fill="#1A1A1A"></path>
                    <path d="M832,51.1586905 L891.874383,51.1586905 L891.874383,82.6142624 C903.797099,66.86844 925.742773,47 960.373112,47 C993.819616,47 1018,63.8692357 1018,105.105718 L1018,251 L958.496364,251 L958.496364,124.257853 C958.496364,106.229131 951.782006,96.8579061 935.008894,96.8579061 C919.046312,96.8579061 905.249405,105.105718 891.874383,116.759842 L891.874383,251 L832,251 L832,51.1586905 Z" id="Fill-15" fill="#1A1A1A"></path>
                </g>
            </g>
        </g>
    </g>
</svg>