<?xml version="1.0" standalone="no"?>
<!DOCTYPE svg PUBLIC "-//W3C//DTD SVG 20010904//EN"
 "http://www.w3.org/TR/2001/REC-SVG-20010904/DTD/svg10.dtd">
<svg version="1.0" xmlns="http://www.w3.org/2000/svg"
 width="1512.000000pt" height="1512.000000pt" viewBox="0 0 1512.000000 1512.000000"
 preserveAspectRatio="xMidYMid meet">
<metadata>
Created by potrace 1.14, written by Peter Selinger 2001-2017
</metadata>
<g transform="translate(0.000000,1512.000000) scale(0.100000,-0.100000)"
fill="#000000" stroke="none">
<path d="M4005 13860 c-3 -5 -3 -10 2 -10 4 0 22 -12 38 -28 17 -15 89 -76
160 -135 72 -60 150 -125 175 -146 25 -21 279 -233 565 -470 286 -238 531
-443 545 -454 14 -12 50 -42 80 -67 30 -25 66 -55 80 -67 14 -11 99 -83 190
-158 91 -75 185 -154 210 -174 25 -21 119 -100 210 -175 91 -75 174 -145 185
-154 11 -10 142 -118 290 -242 307 -255 295 -245 356 -296 25 -22 64 -54 87
-72 22 -19 51 -43 64 -54 13 -11 70 -59 128 -107 58 -47 150 -124 205 -170
136 -114 147 -123 505 -421 173 -144 335 -279 360 -300 25 -20 101 -84 170
-141 69 -57 134 -111 145 -120 11 -10 40 -34 65 -54 25 -21 68 -57 95 -80 44
-37 136 -113 301 -250 26 -22 67 -56 90 -75 23 -19 51 -43 62 -52 12 -10 101
-84 198 -165 98 -81 193 -161 213 -178 85 -69 266 -220 271 -225 3 -3 84 -71
180 -150 96 -80 186 -154 200 -166 14 -12 95 -80 180 -150 85 -71 157 -131
160 -134 3 -3 70 -59 150 -125 80 -66 147 -122 150 -125 3 -3 17 -15 32 -26
15 -12 51 -41 80 -67 29 -25 125 -105 213 -177 88 -73 160 -136 160 -141 0 -5
-49 -49 -110 -100 -60 -50 -130 -108 -155 -129 -133 -112 -417 -348 -444 -370
-17 -14 -274 -227 -571 -474 -297 -248 -578 -481 -625 -520 -47 -39 -87 -73
-90 -76 -4 -4 -179 -150 -495 -412 -11 -9 -54 -45 -95 -80 -42 -34 -98 -81
-125 -103 -27 -22 -62 -52 -79 -66 -53 -44 -76 -64 -241 -200 -88 -73 -165
-138 -171 -144 -6 -5 -30 -26 -54 -45 -24 -19 -76 -62 -115 -95 -39 -33 -91
-76 -116 -96 -47 -39 -763 -635 -839 -699 -42 -35 -319 -265 -420 -348 -24
-20 -63 -53 -85 -72 -76 -64 -253 -212 -588 -490 -10 -8 -28 -23 -40 -33 -85
-72 -649 -542 -715 -595 -23 -19 -50 -41 -60 -50 -11 -10 -39 -33 -63 -53
-122 -101 -377 -313 -399 -332 -14 -12 -47 -40 -75 -62 -27 -22 -52 -42 -55
-45 -6 -7 -173 -147 -214 -180 -188 -151 -513 -431 -505 -436 14 -8 7050 -8
7185 0 56 4 110 8 120 10 10 2 51 7 89 10 90 9 347 50 387 62 10 3 30 7 45 10
157 28 440 116 683 213 183 74 598 287 608 313 2 4 8 8 13 8 12 0 165 102 289
193 170 125 304 242 487 425 450 452 788 1003 996 1622 32 96 89 300 101 360
3 14 12 57 20 95 8 39 17 81 19 95 13 70 24 141 32 205 3 22 7 56 10 75 2 19
8 76 12 125 10 114 11 4840 0 4955 -11 135 -25 252 -33 294 -2 11 -6 38 -10
61 -5 35 -12 71 -30 164 -3 13 -12 51 -20 85 -8 34 -17 69 -19 78 -36 156
-121 409 -202 602 -250 594 -652 1140 -1148 1559 -44 37 -87 73 -95 81 -8 7
-51 39 -95 72 -392 293 -811 509 -1260 650 -120 38 -397 109 -460 119 -22 3
-76 12 -120 20 -80 14 -131 21 -215 30 -25 3 -65 8 -90 12 -74 12 -7298 15
-7305 3z"/>
<path d="M1965 13258 c-424 -270 -801 -612 -1097 -996 l-42 -54 30 -26 c16
-15 83 -72 149 -126 66 -55 122 -103 125 -106 3 -3 43 -37 90 -75 47 -38 87
-72 90 -75 3 -3 61 -53 130 -110 69 -58 134 -112 145 -122 11 -9 70 -58 130
-108 61 -51 124 -104 140 -119 34 -29 140 -118 169 -141 10 -8 23 -20 30 -25
6 -6 38 -33 71 -60 33 -28 71 -60 85 -72 14 -12 160 -135 325 -273 329 -277
377 -317 444 -374 25 -21 55 -45 66 -55 102 -84 201 -167 205 -171 3 -3 48
-41 100 -85 146 -121 284 -238 290 -245 3 -3 28 -23 55 -45 28 -22 64 -52 80
-66 24 -21 181 -153 330 -277 11 -10 54 -46 95 -81 41 -35 84 -71 95 -80 11
-9 92 -77 180 -151 89 -74 183 -153 209 -175 27 -22 54 -45 60 -50 6 -6 81
-69 166 -140 358 -301 537 -451 560 -471 14 -12 102 -86 195 -164 251 -210
259 -217 375 -315 59 -49 152 -128 208 -175 56 -46 102 -87 102 -91 0 -3 -19
-21 -42 -40 -22 -19 -60 -50 -83 -69 -23 -19 -65 -55 -95 -80 -29 -25 -58 -50
-64 -55 -6 -6 -78 -66 -161 -135 -82 -68 -161 -134 -175 -146 -14 -12 -104
-88 -200 -169 -96 -80 -184 -154 -195 -163 -11 -10 -47 -40 -80 -67 -33 -28
-71 -60 -85 -72 -64 -55 -120 -101 -164 -138 -27 -22 -54 -44 -60 -50 -6 -5
-51 -44 -101 -85 -49 -41 -95 -79 -101 -85 -6 -5 -32 -28 -59 -50 -27 -22
-123 -103 -214 -180 -91 -77 -174 -147 -185 -155 -10 -8 -46 -38 -80 -67 -33
-28 -209 -176 -391 -328 -181 -153 -350 -294 -375 -315 -53 -45 -184 -155
-254 -214 -28 -22 -66 -55 -85 -72 -20 -17 -135 -113 -256 -214 -121 -101
-222 -187 -225 -190 -3 -3 -43 -37 -90 -75 -47 -39 -96 -80 -110 -92 -25 -21
-646 -543 -1000 -840 -102 -85 -205 -172 -230 -193 -25 -21 -108 -91 -185
-155 -196 -165 -181 -147 -159 -180 10 -15 28 -39 40 -54 12 -14 64 -75 114
-136 84 -100 298 -319 410 -420 153 -138 431 -342 618 -454 l54 -32 36 28 c32
24 68 54 106 88 6 6 92 77 191 160 99 82 182 152 185 155 3 3 32 27 65 55 33
27 62 52 65 55 3 3 46 39 95 80 50 41 92 77 95 80 3 3 27 24 55 45 27 22 56
46 63 53 8 7 80 67 160 135 81 67 149 124 152 127 3 3 32 28 65 55 33 27 92
77 131 110 39 33 82 69 95 80 63 52 335 280 339 285 3 3 46 39 95 80 121 101
115 96 241 202 61 51 160 134 220 185 60 50 231 193 379 318 149 125 292 246
319 269 94 78 201 168 226 189 14 12 52 44 85 71 33 28 62 52 65 55 3 4 27 24
55 46 27 22 57 47 65 55 9 8 38 33 65 55 28 21 52 42 55 45 3 3 32 28 65 55
33 28 62 52 65 55 3 3 32 27 65 55 33 27 62 52 65 55 3 3 30 25 60 50 30 25
57 47 60 50 3 3 57 48 120 101 63 53 176 147 250 210 74 62 194 162 265 222
217 183 228 192 239 202 6 6 23 20 38 31 15 12 51 42 80 67 29 25 132 111 228
192 96 80 197 165 224 188 63 53 389 327 622 522 98 82 181 152 184 155 3 3
59 50 125 105 253 211 340 287 340 295 0 4 -20 24 -45 45 -25 21 -47 40 -50
44 -3 3 -26 23 -52 44 -26 21 -53 43 -60 50 -7 7 -65 55 -128 107 -63 52 -128
107 -145 121 -16 15 -275 233 -575 484 -300 251 -567 476 -595 500 -27 23
-113 95 -190 159 -163 136 -152 128 -275 231 -52 44 -106 90 -120 101 -25 22
-631 530 -725 608 -27 22 -79 66 -115 97 -36 30 -76 64 -89 75 -13 10 -28 24
-35 29 -6 6 -65 56 -131 110 -66 55 -133 112 -150 126 -30 27 -452 381 -541
454 -26 22 -66 56 -89 75 -108 92 -173 147 -475 400 -179 150 -349 293 -378
318 -29 25 -65 54 -80 66 -15 11 -29 23 -32 26 -3 3 -48 41 -100 85 -52 44
-97 82 -100 85 -3 3 -59 50 -125 105 -66 54 -122 102 -125 105 -3 3 -113 95
-245 205 -302 252 -286 238 -299 251 -12 11 -75 64 -421 354 -121 102 -231
194 -245 206 -56 49 -125 104 -130 103 -3 0 -54 -32 -115 -71z"/>
<path d="M101 10597 c-5 -13 -12 -41 -15 -61 -4 -21 -8 -41 -10 -45 -2 -3 -7
-31 -11 -61 -4 -30 -8 -57 -10 -60 -2 -3 -6 -26 -10 -50 -3 -25 -10 -72 -15
-105 -5 -33 -13 -94 -17 -135 -10 -96 -11 -4980 0 -5080 4 -41 9 -86 11 -100
6 -39 19 -123 21 -140 1 -8 4 -31 8 -50 4 -19 9 -48 12 -65 2 -16 13 -67 22
-111 l18 -81 235 194 c129 107 253 209 275 228 22 18 101 83 175 145 74 61
144 119 155 128 12 10 47 40 80 67 76 63 52 44 380 315 154 127 289 239 300
248 11 9 58 48 105 87 47 38 87 72 90 75 3 3 30 25 60 50 30 25 64 52 75 62
25 21 157 130 210 173 246 203 365 302 390 324 17 14 66 55 110 91 44 36 91
75 105 87 33 28 536 444 782 646 l196 162 -26 25 c-27 24 -134 115 -184 155
-14 11 -45 36 -69 57 -24 20 -118 98 -209 173 -91 75 -174 144 -185 153 -11
10 -83 69 -160 132 -77 63 -142 117 -145 120 -7 7 -141 118 -355 295 -99 82
-209 173 -245 203 -79 65 -77 64 -220 182 -63 52 -124 102 -135 111 -47 40
-785 651 -910 754 -66 54 -189 156 -211 174 -11 10 -166 138 -343 285 -305
252 -322 265 -330 243z"/>
</g>
</svg>
